# xmcd
#
# Track frame offsets:
#	150
#	18928
#	37647
#	62584
#	73021
#	87986
#	104990
#	118703
#	132432
#	155481
#	169605
#	192885
#
# Disc length: 2803 seconds
#
# Revision: 0
# Processed by: cddbd v1.4PL0 Copyright (c) Steve Scherf et al.
# Submitted via: dBpowerAMP V4.0
#
DISCID=9e0af10c
DTITLE=James Hinkle - Running Too Hard
DYEAR=1997
DGENRE=Blues
TTITLE0=Front Line
TTITLE1=Drifters Heart
TTITLE2=Rock Ya
TTITLE3=9 'Til 2
TTITLE4=Am I Coming Through
TTITLE5=Tornado
TTITLE6=Running Too Hard
TTITLE7=Lucky Charm
TTITLE8=Towing The Line
TTITLE9=Greener Pastures
TTITLE10=Take A Good Look
TTITLE11=Talk
EXTD=
EXTT0=
EXTT1=
EXTT2=
EXTT3=
EXTT4=
EXTT5=
EXTT6=
EXTT7=
EXTT8=
EXTT9=
EXTT10=
EXTT11=
PLAYORDER=
